PathFileType	4	(X/Y/Z)	Patient4_TMGait_0pt6_02_left_10.trc.trc
DataRate	CameraRate	NumFrames	NumMarkers	Units	OrigDataRate	OrigDataStartFrame	OrigNumFrames
75.268817204301	75.268817204301	4	33	mm	75.268817204301	18	       141
Frame#	Time	Sacral			L.Shoulder			Chest			R.Shoulder			Neck			R.ASIS			L.ASIS			R.Thigh.Superior			R.Thigh.Lateral			R.Thigh.Inferior			R.Patella			L.Thigh.Superior			L.Thigh.Lateral			L.Thigh.Inferior			L.Patella			L.Shank.Superior			L.Shank.Lateral			L.Shank.Inferior			R.Shank.Superior			R.Shank.Lateral			R.Shank.Inferior			R.Heel			R.Midfoot.Superior			R.Midfoot.Lateral			R.Toe			L.Heel			L.Midfoot.Lateral			L.Midfoot.Superior			L.Toe			L.Elbow			L.Wrist			R.Elbow			R.Wrist			
		X1	Y1	Z1	X2	Y2	Z2	X3	Y3	Z3	X4	Y4	Z4	X5	Y5	Z5	X6	Y6	Z6	X7	Y7	Z7	X8	Y8	Z8	X9	Y9	Z9	X10	Y10	Z10	X11	Y11	Z11	X12	Y12	Z12	X13	Y13	Z13	X14	Y14	Z14	X15	Y15	Z15	X16	Y16	Z16	X17	Y17	Z17	X18	Y18	Z18	X19	Y19	Z19	X20	Y20	Z20	X21	Y21	Z21	X22	Y22	Z22	X23	Y23	Z23	X24	Y24	Z24	X25	Y25	Z25	X26	Y26	Z26	X27	Y27	Z27	X28	Y28	Z28	X29	Y29	Z29	X30	Y30	Z30	X31	Y31	Z31	X32	Y32	Z32	X33	Y33	Z33	

18	12.435857142857	744.823543331341	1011.956906338241	506.115885128994	910.379992752172	1441.408200265349	328.109146810940	1032.126253400859	1359.392769979328	468.066673372646	978.453804219098	1427.550485280897	654.711531965874	928.431346855724	1493.176557438954	483.157515722611	976.593936851314	940.158813542953	602.231271858968	941.128105615720	960.635592364480	328.903117263556	978.506846222729	729.991446386249	574.974592557362	878.167136080088	633.946199337461	637.242928585838	940.113651617587	570.533118732747	556.704128224413	924.287196699671	485.938745120901	561.186656762049	1014.116910305684	776.426026221637	355.705613381316	965.102999984949	645.376149315229	282.630931491357	1071.147313225147	588.082649299595	342.782725190655	1100.488142271936	526.825252192327	340.912873796403	1088.952240727405	457.165858150252	333.452988488485	1034.730059291186	320.606642745729	286.131124504763	1132.125231197214	231.326246093419	341.113318511553	889.385217565916	401.398674876476	565.847427116341	809.572146715144	302.180054060932	624.718911864635	845.845177484043	205.830735474166	558.588937098148	703.027936125784	43.812028856057	523.029809104224	876.228769436260	96.849090440361	557.272037595605	787.285682175815	36.568767628763	596.081768413725	995.533493151274	41.718614684363	582.275564851993	1066.966381545734	44.836196044357	385.160634248711	1140.135702156066	53.202896032423	304.976898377928	1203.166243849586	138.368491201584	321.927953191680	1339.148236116600	121.308955016492	297.187958928721	762.767764531834	1117.644162036866	232.016421825452	738.632337939151	857.155152341137	233.626425506722	1076.248492973816	1093.841183110950	756.780975807893	1321.604235025685	1103.982383174100	695.991346947336	
19	12.449142857143	744.477683828515	1011.404171105446	504.105415173217	910.156301193619	1440.449518406786	325.726478812284	1031.587653326771	1358.652595000159	466.111647485504	977.466195369644	1427.227248804736	652.472006480588	927.892053980624	1492.455845016994	480.700609657039	975.600647593484	939.459161139535	601.047317168251	941.118270656311	959.577611542866	327.476273621518	975.858003306421	728.944341252053	574.173979741692	874.298883222629	633.775446715879	636.311400546283	935.781312104093	569.643292023527	556.039352272342	919.276273942065	485.150716201413	560.612084755804	1013.310840280789	774.839017779896	354.513506955157	962.912231022870	643.351015950201	282.525490136068	1068.906844241968	586.070971224557	342.297819254940	1097.779047191933	524.948392943979	341.124870548327	1086.237120876562	455.152818649178	333.954869465634	1031.900598675567	318.431344025824	287.712379554805	1129.527921520278	229.540097073964	342.680871358956	883.678978514046	400.916876965968	565.361174025077	803.057035081321	302.433199524249	624.347021168266	838.647840208601	205.687140345744	558.451912930561	695.014890842904	43.960791643316	523.047421427894	868.238253592116	96.855664794697	557.301495402268	779.225519584589	36.558756067580	596.009419618715	987.482191466308	41.618673854208	582.335839792918	1064.450459215743	44.150709727348	388.213520923635	1136.899335452586	51.658084873814	307.372251896309	1200.808196654432	135.927690824287	323.596368484306	1336.199722548566	117.465241661603	297.757871410097	763.050887301795	1116.403294090132	229.942295062127	741.375584391956	855.538550890848	232.469990343237	1073.902224629232	1092.911303483664	753.936538939902	1318.619061929940	1103.937464718603	691.562549447091	
20	12.462428571429	744.355305728087	1010.661772296248	501.875358826333	909.892658864459	1439.318705723606	323.055513780051	1031.030537168678	1357.920145894663	463.956582548085	976.308425523305	1426.932030421178	649.991499847248	927.213286136214	1491.654406339026	477.935141765152	974.802723395329	938.675807420493	599.840649969951	941.489058063347	958.393728935557	326.023803919556	973.515854969778	727.805471002658	573.344367204669	870.755532066583	633.496448913327	635.286776207409	931.840894875782	568.659666131395	555.312469302076	914.641937809022	484.213696085789	559.930824098557	1013.112874933619	773.221497585614	353.541251824144	961.479646621836	641.354537377897	282.565028318226	1067.210075980144	584.095345474314	342.237837631699	1095.437181647554	522.704086083268	341.660145222808	1083.480764716461	452.583621409491	334.690340341201	1028.019687453442	316.154834342651	289.456669097191	1125.090746228053	226.926249716622	344.510730871084	878.300094144717	400.295881167862	564.784220755282	796.793687589564	302.624432650377	623.902890743188	831.569382142192	205.463095246265	558.254795524049	687.011593917071	44.097360598054	523.050630540876	860.248354952069	96.862480630096	557.309165692487	771.174118993801	36.548982811325	595.928178327346	979.434802562371	41.504800517917	582.401809244793	1058.635525657820	43.307055700137	391.428719715766	1130.270262085243	49.643619996552	309.813884249898	1195.781259556186	132.294462106707	325.512296437223	1330.335672794311	111.326943166718	298.234527697003	763.665371876361	1114.828977760214	227.440995493778	745.166218912747	853.566868120935	230.708756720662	1070.953700715324	1092.004253218791	751.450053595834	1315.117106819028	1102.882810517501	687.481091210185	
21	12.475714285714	744.420577355764	1009.725308669483	499.416786574509	909.613997282120	1438.000434019523	320.100423318759	1030.467948739828	1357.172727393441	461.608296551539	974.985592225214	1426.636250928664	647.276351858760	926.422913942912	1490.761719688102	474.860851696830	974.200281613401	937.800891743172	598.614113199143	942.216541109689	957.079723736472	324.550054579480	971.521148115471	726.571826759660	572.484790453717	867.583523894427	633.090507772074	634.151307334519	928.346998644280	567.570755004093	554.512185930733	910.431008489313	483.103969842458	559.114942394720	1013.475070068531	771.530178861120	352.807800934126	960.740582246670	639.393471558357	282.708025181570	1065.994214578584	582.134773196898	342.588275201563	1093.386960464613	520.125499810246	342.537080688932	1080.734134594354	449.553773361213	335.636202384836	1023.395077965802	313.784635158687	291.219637717174	1119.222326066090	223.622669613749	346.524549261488	873.284949672263	399.515429076959	564.088212634461	790.815527551880	302.743827735375	623.369759051646	824.626202455062	205.146961729734	557.977652982949	679.017850490690	44.228600479766	523.039005453518	852.262807984409	96.869688031113	557.290884503276	763.136847774196	36.546203311136	595.841438060931	971.399636182826	41.372746808097	582.473900495370	1050.146895951757	42.318990689231	394.579244535242	1120.980009736963	47.287347373807	312.173598709183	1188.657204392303	127.703604550387	327.649665071771	1322.206256742968	103.340494153811	298.781151558998	764.599511573762	1112.911964750340	224.541117779893	749.939367877991	851.255931137802	228.353519091149	1067.414592103072	1091.095518541922	749.337518243060	1311.126141624852	1100.797842323277	683.797216604320	
